#!OML:ASF I:\golf\golf\golf 2\Subject 1\2002-09-07\Subject1.ASF
:FULLY-SPECIFIED
:DEGREES
482
root -11.171 18.0686 6.1782 -156.47 75.2804 -173.741
lowerback 3.08596 2.45321 0.637128
upperback 3.79083 3.4062 4.90016
thorax 1.91244 1.73551 4.65318
lowerneck -12.3755 0.332988 4.96379
upperneck 39.2413 2.89571 -3.37358
head 16.1944 2.22011 -1.66792
rclavicle -3.02153e-014 4.13472e-014
rhumerus -8.25175 8.75201 -100.35
rradius 31.7615
rwrist -41.998
rhand -27.0061 -16.5021
rfingers 7.12502
rthumb -0.426021 -46.4814
lclavicle -3.02153e-014 4.13472e-014
lhumerus -11.8436 -45.5973 108.892
lradius 35.5335
lwrist 49.5101
lhand -4.89568 59.783
lfingers 7.12502
lthumb -159.106 268.678
rfemur -23.5322 -4.79023 13.0557
rtibia 22.1115
rfoot -7.83939 -17.0808
rtoes -0.00146124
lfemur -29.7891 0.653318 -12.1604
ltibia 20.5943
lfoot -7.75039 -12.9517
ltoes -13.5835
483
root -11.1698 18.0688 6.18005 -156.343 75.3282 -173.59
lowerback 3.09394 2.45746 0.618617
upperback 3.80122 3.41152 4.89779
thorax 1.91742 1.73768 4.66102
lowerneck -12.3823 0.433859 5.11404
upperneck 39.1846 3.02251 -3.45257
head 16.1794 2.28029 -1.70834
rclavicle 8.42847e-014 1.00187e-013
rhumerus -8.27459 8.75926 -100.351
rradius 31.7639
rwrist -41.906
rhand -26.8314 -16.4914
rfingers 7.12502
rthumb -0.257277 -46.471
lclavicle 8.42847e-014 1.00187e-013
lhumerus -11.8246 -45.7175 108.851
lradius 35.5327
lwrist 49.672
lhand -4.91699 59.7544
lfingers 7.12502
lthumb -159.127 268.651
rfemur -23.5132 -4.72355 13.0794
rtibia 22.103
rfoot -7.84097 -17.0842
rtoes -0.228521
lfemur -29.7691 0.759774 -12.1483
ltibia 20.6323
lfoot -7.74782 -13.0405
ltoes -13.5661
484
root -11.1691 18.0689 6.17985 -156.261 75.2982 -173.515
lowerback 3.07172 2.4389 0.650836
upperback 3.79962 3.3866 4.89771
thorax 1.93189 1.72583 4.64443
lowerneck -12.369 0.520742 5.25006
upperneck 39.0906 3.13952 -3.56141
head 16.14 2.32938 -1.76076
rclavicle -1.03368e-014 4.29375e-014
rhumerus -8.26245 8.71033 -100.322
rradius 31.7207
rwrist -41.7258
rhand -26.6196 -16.5918
rfingers 7.12502
rthumb -0.0526795 -46.5716
lclavicle -1.03368e-014 4.29375e-014
lhumerus -11.8303 -45.803 108.827
lradius 35.5561
lwrist 49.7897
lhand -5.01055 59.7536
lfingers 7.12502
lthumb -159.217 268.661
rfemur -23.4936 -4.73589 13.1071
rtibia 22.0746
rfoot -7.95555 -17.0805
rtoes 0.0226238
lfemur -29.8076 0.819049 -12.1464
ltibia 20.6758
lfoot -7.79764 -13.1118
ltoes -13.7333
485
root -11.1684 18.0683 6.18068 -156.072 75.2469 -173.36
lowerback 3.02086 2.42202 0.678988
upperback 3.77825 3.36446 4.94165
thorax 1.93904 1.71549 4.67678
lowerneck -12.3198 0.588333 5.32938
upperneck 38.9992 3.25369 -3.67904
head 16.0921 2.36973 -1.80708
rclavicle 1.19271e-014 -6.83819e-014
rhumerus -8.27543 8.74613 -100.242
rradius 31.7058
rwrist -41.6984
rhand -26.5842 -16.6722
rfingers 7.12502
rthumb -0.0185081 -46.652
lclavicle 1.19271e-014 -6.83819e-014
lhumerus -11.863 -45.7395 108.899
lradius 35.5531
lwrist 49.7536
lhand -5.02566 59.7386
lfingers 7.12502
lthumb -159.231 268.647
rfemur -23.4978 -4.74078 13.1715
rtibia 22.0316
rfoot -7.96685 -17.1161
rtoes 0.242994
lfemur -29.8783 0.857439 -12.1039
ltibia 20.7115
lfoot -7.80825 -13.1764
ltoes -13.6646
486
root -11.1664 18.0692 6.18207 -155.944 75.2668 -173.212
lowerback 3.02323 2.4237 0.685654
upperback 3.7644 3.36767 4.95968
thorax 1.92249 1.71749 4.69113
lowerneck -12.1912 0.649441 5.46209
upperneck 38.907 3.3459 -3.78146
head 16.0241 2.41318 -1.86021
rclavicle 5.56597e-015 4.6118e-014
rhumerus -8.30774 8.8417 -100.225
rradius 31.704
rwrist -41.8864
rhand -26.7584 -16.621
rfingers 7.12502
rthumb -0.186748 -46.6007
lclavicle 5.56597e-015 4.6118e-014
lhumerus -11.9195 -45.6183 108.981
lradius 35.5238
lwrist 49.7319
lhand -5.01199 59.6994
lfingers 7.12502
lthumb -159.218 268.607
rfemur -23.4669 -4.69839 13.2068
rtibia 22.0011
rfoot -8.00192 -17.1273
rtoes 0.231938
lfemur -29.8505 0.801666 -12.0276
ltibia 20.7285
lfoot -7.80305 -13.1279
ltoes -13.3957
487
root -11.1644 18.0714 6.18242 -155.931 75.3077 -173.166
lowerback 3.04455 2.43469 0.665385
upperback 3.76004 3.38267 4.9573
thorax 1.9039 1.72466 4.69844
lowerneck -12.1183 0.700265 5.52447
upperneck 38.8516 3.40292 -3.78166
head 15.9832 2.44511 -1.86195
rclavicle 6.36111e-015 6.36111e-015
rhumerus -8.33508 8.80642 -100.236
rradius 31.7178
rwrist -41.9444
rhand -26.7875 -16.5919
rfingers 7.12502
rthumb -0.214842 -46.5716
lclavicle 6.36111e-015 6.36111e-015
lhumerus -11.9797 -45.5771 109.043
lradius 35.5294
lwrist 49.8001
lhand -5.15939 59.7688
lfingers 7.12502
lthumb -159.36 268.691
rfemur -23.424 -4.68181 13.2058
rtibia 21.9769
rfoot -8.2556 -17.0819
rtoes 1.76367
lfemur -29.7981 0.758779 -11.9947
ltibia 20.7381
lfoot -7.87234 -13.0512
ltoes -13.5711
488
root -11.1638 18.0707 6.18259 -155.891 75.2985 -173.139
lowerback 3.03757 2.44074 0.674042
upperback 3.7469 3.3908 4.95657
thorax 1.89411 1.72898 4.69247
lowerneck -12.1941 0.750208 5.48703
upperneck 38.8541 3.44837 -3.70036
head 16.0041 2.46662 -1.81188
rclavicle -5.48646e-014 2.70347e-014
rhumerus -8.34147 8.74428 -100.226
rradius 31.736
rwrist -41.9197
rhand -26.7811 -16.5837
rfingers 7.12502
rthumb -0.208621 -46.5633
lclavicle -5.48646e-014 2.70347e-014
lhumerus -11.9774 -45.5298 109.096
lradius 35.4839
lwrist 49.8157
lhand -5.23941 59.7732
lfingers 7.12502
lthumb -159.437 268.704
rfemur -23.419 -4.69433 13.2201
rtibia 21.9414
rfoot -8.39384 -17.0692
rtoes 3.14028
lfemur -29.8212 0.752748 -11.986
ltibia 20.754
lfoot -7.94504 -13.0136
ltoes -13.9705
489
root -11.1634 18.0681 6.18297 -155.772 75.2614 -173.016
lowerback 3.06493 2.43661 0.749985
upperback 3.72674 3.38816 4.95148
thorax 1.86264 1.72987 4.64216
lowerneck -12.2911 0.802059 5.47199
upperneck 38.8919 3.50607 -3.64682
head 16.0504 2.49412 -1.77581
rclavicle 5.32743e-014 1.43125e-014
rhumerus -8.38774 8.8157 -100.221
rradius 31.788
rwrist -42.0448
rhand -26.9501 -16.587
rfingers 7.12502
rthumb -0.371868 -46.5664
lclavicle 5.32743e-014 1.43125e-014
lhumerus -11.9763 -45.4387 109.14
lradius 35.3981
lwrist 49.7638
lhand -5.18204 59.5889
lfingers 7.12502
lthumb -159.382 268.514
rfemur -23.4046 -4.69254 13.2631
rtibia 21.9232
rfoot -8.08899 -17.0929
rtoes 1.44314
lfemur -29.8308 0.696913 -11.929
ltibia 20.7624
lfoot -7.93633 -12.9667
ltoes -14.0356
490
root -11.1631 18.0693 6.1836 -155.699 75.2406 -172.924
lowerback 3.10447 2.4297 0.783005
upperback 3.69973 3.38201 4.96123
thorax 1.81429 1.72814 4.63072
lowerneck -12.2686 0.860121 5.51895
upperneck 38.8621 3.58233 -3.65897
head 16.0364 2.53013 -1.77667
rclavicle 1.59028e-014 -2.22639e-014
rhumerus -8.48497 8.94 -100.194
rradius 31.8697
rwrist -42.2221
rhand -27.0557 -16.5463
rfingers 7.12502
rthumb -0.47388 -46.5255
lclavicle 1.59028e-014 -2.22639e-014
lhumerus -12.0453 -45.3159 109.231
lradius 35.3492
lwrist 49.6718
lhand -5.10969 59.4231
lfingers 7.12502
lthumb -159.312 268.34
rfemur -23.3907 -4.68342 13.2932
rtibia 21.9322
rfoot -7.86336 -17.1052
rtoes -0.215035
lfemur -29.8142 0.645379 -11.8726
ltibia 20.7606
lfoot -7.81645 -12.9717
ltoes -13.4403
491
root -11.1625 18.0722 6.18397 -155.78 75.2868 -173.021
lowerback 3.08974 2.43825 0.71711
upperback 3.68041 3.39144 4.96044
thorax 1.79821 1.73119 4.66677
lowerneck -12.203 0.932892 5.59506
upperneck 38.7506 3.6649 -3.68322
head 15.9711 2.56827 -1.78712
rclavicle 1.74931e-014 -4.77083e-015
rhumerus -8.50968 8.93299 -100.183
rradius 31.8493
rwrist -42.2272
rhand -27.0016 -16.4016
rfingers 7.12502
rthumb -0.421672 -46.3809
lclavicle 1.74931e-014 -4.77083e-015
lhumerus -12.0966 -45.2232 109.316
lradius 35.31
lwrist 49.6071
lhand -5.13865 59.4219
lfingers 7.12502
lthumb -159.34 268.342
rfemur -23.4151 -4.70088 13.2681
rtibia 21.9392
rfoot -7.83446 -17.0672
rtoes -0.605173
lfemur -29.8159 0.636723 -11.8967
ltibia 20.7676
lfoot -7.71756 -12.9468
ltoes -12.8344
492
root -11.1618 18.0717 6.18396 -155.875 75.336 -173.134
lowerback 3.05942 2.45383 0.657848
upperback 3.67591 3.40918 4.94706
thorax 1.80663 1.73828 4.68718
lowerneck -12.1772 0.992474 5.65443
upperneck 38.6485 3.73407 -3.71817
head 15.9195 2.59643 -1.80131
rclavicle -2.78299e-014 -3.49861e-014
rhumerus -8.48553 8.9049 -100.193
rradius 31.7764
rwrist -42.2436
rhand -27.0623 -16.2809
rfingers 7.12502
rthumb -0.480231 -46.2602
lclavicle -2.78299e-014 -3.49861e-014
lhumerus -12.1162 -45.2686 109.353
lradius 35.2966
lwrist 49.6742
lhand -5.34826 59.5277
lfingers 7.12502
lthumb -159.541 268.47
rfemur -23.4358 -4.73256 13.2399
rtibia 21.9417
rfoot -7.78694 -17.0152
rtoes -0.749314
lfemur -29.8174 0.643771 -11.9392
ltibia 20.7749
lfoot -7.76989 -12.8695
ltoes -13.0457
493
root -11.1616 18.0696 6.18422 -155.891 75.3263 -173.133
lowerback 3.06129 2.43975 0.655799
upperback 3.68501 3.39063 4.95625
thorax 1.81578 1.72896 4.69863
lowerneck -12.1613 1.06838 5.67066
upperneck 38.5702 3.84231 -3.7478
head 15.8846 2.63596 -1.7989
rclavicle 8.26944e-014 5.56597e-014
rhumerus -8.49831 9.03002 -100.194
rradius 31.7751
rwrist -42.4212
rhand -27.2198 -16.2538
rfingers 7.12502
rthumb -0.632378 -46.2326
lclavicle 8.26944e-014 5.56597e-014
lhumerus -12.1032 -45.2357 109.37
lradius 35.2837
lwrist 49.7067
lhand -5.42718 59.5802
lfingers 7.12502
lthumb -159.617 268.53
rfemur -23.4241 -4.77197 13.2538
rtibia 21.9569
rfoot -7.8582 -16.9987
rtoes -0.523778
lfemur -29.7979 0.636603 -11.9313
ltibia 20.7663
lfoot -7.84285 -12.8641
ltoes -13.3286
494
root -11.161 18.0695 6.18569 -155.848 75.3308 -173.099
lowerback 3.03105 2.41012 0.65592
upperback 3.69068 3.34972 4.95627
thorax 1.84171 1.70813 4.70127
lowerneck -12.1446 1.16995 5.68056
upperneck 38.5095 3.9755 -3.73155
head 15.8592 2.69104 -1.77148
rclavicle -4.77083e-015 -4.6118e-014
rhumerus -8.5254 9.1656 -100.235
rradius 31.8133
rwrist -42.574
rhand -27.3638 -16.2913
rfingers 7.12502
rthumb -0.771454 -46.2696
lclavicle -4.77083e-015 -4.6118e-014
lhumerus -12.0701 -45.0553 109.353
lradius 35.2174
lwrist 49.5654
lhand -5.30206 59.5129
lfingers 7.12502
lthumb -159.497 268.45
rfemur -23.4499 -4.78033 13.2707
rtibia 21.9832
rfoot -7.96215 -16.9899
rtoes -0.407099
lfemur -29.8041 0.644154 -11.9101
ltibia 20.7526
lfoot -7.83523 -12.904
ltoes -13.2578
